<?xml version="1.0" encoding="UTF-8"?>
<!DOCTYPE svg PUBLIC "-//W3C//DTD SVG 1.1//EN" "http://www.w3.org/Graphics/SVG/1.1/DTD/svg11.dtd">
<!-- Creator: CorelDRAW -->
<svg xmlns="http://www.w3.org/2000/svg" xml:space="preserve" width="22px" height="22px" version="1.1" style="shape-rendering:geometricPrecision; text-rendering:geometricPrecision; image-rendering:optimizeQuality; fill-rule:evenodd; clip-rule:evenodd"
viewBox="0 0 22.949 22.949"
 xmlns:xlink="http://www.w3.org/1999/xlink"
 xmlns:xodm="http://www.corel.com/coreldraw/odm/2003">
 <defs>
  <style type="text/css">
   <![CDATA[
    .fil0 {fill:white;fill-rule:nonzero}
   ]]>
  </style>
 </defs>
 <g id="Layer_x0020_1">
  <metadata id="CorelCorpID_0Corel-Layer"/>
  <g id="_105553436482752">
   <path class="fil0" d="M16.737 0l-10.525 0c-3.426,0 -6.212,2.787 -6.212,6.212l0 10.525c0,3.425 2.786,6.212 6.212,6.212l10.525 0c3.425,0 6.212,-2.787 6.212,-6.212l0 -10.525c0,-3.425 -2.787,-6.212 -6.212,-6.212l0 0zm4.867 16.737c0,2.684 -2.183,4.867 -4.867,4.867l-10.525 0c-2.684,0 -4.867,-2.183 -4.867,-4.867l0 -10.525c0,-2.683 2.183,-4.867 4.867,-4.867l10.525 0c2.684,0 4.867,2.184 4.867,4.867l0 10.525zm0 0z"/>
   <path class="fil0" d="M11.474 5.2c-3.46,0 -6.274,2.814 -6.274,6.275 0,3.46 2.814,6.275 6.274,6.275 3.461,0 6.275,-2.815 6.275,-6.275 0,-3.461 -2.814,-6.275 -6.275,-6.275zm0 11.204c-2.718,0 -4.929,-2.211 -4.929,-4.929 0,-2.718 2.211,-4.93 4.929,-4.93 2.719,0 4.93,2.212 4.93,4.93 0,2.718 -2.211,4.929 -4.93,4.929zm0 0z"/>
   <path class="fil0" d="M17.899 2.971c-1.022,0 -1.854,0.832 -1.854,1.854 0,1.023 0.832,1.854 1.854,1.854 1.023,0 1.855,-0.831 1.855,-1.854 0,-1.022 -0.832,-1.854 -1.855,-1.854zm0 2.363c-0.28,0 -0.508,-0.228 -0.508,-0.509 0,-0.28 0.228,-0.509 0.508,-0.509 0.281,0 0.509,0.229 0.509,0.509 0,0.281 -0.228,0.509 -0.509,0.509zm0 0z"/>
  </g>
 </g>
</svg>
