<?xml version="1.0" encoding="UTF-8"?>
<!DOCTYPE svg PUBLIC "-//W3C//DTD SVG 1.1//EN" "http://www.w3.org/Graphics/SVG/1.1/DTD/svg11.dtd">
<!-- Creator: CorelDRAW -->
<svg xmlns="http://www.w3.org/2000/svg" xml:space="preserve" width="77px" height="77px" version="1.1" style="shape-rendering:geometricPrecision; text-rendering:geometricPrecision; image-rendering:optimizeQuality; fill-rule:evenodd; clip-rule:evenodd"
viewBox="0 0 77.929 77.929"
 xmlns:xlink="http://www.w3.org/1999/xlink"
 xmlns:xodm="http://www.corel.com/coreldraw/odm/2003">
 <defs>
  <style type="text/css">
   <![CDATA[
    .fil1 {fill:white;fill-rule:nonzero}
    .fil0 {fill:#ED522D;fill-opacity:0.149020}
   ]]>
  </style>
 </defs>
 <g id="Layer_x0020_1">
  <metadata id="CorelCorpID_0Corel-Layer"/>
  <path class="fil0" d="M38.927 18.652c11.218,-0.021 20.329,9.056 20.35,20.275 0.021,11.218 -9.056,20.329 -20.274,20.35 -11.218,0.021 -20.33,-9.056 -20.351,-20.274 -0.021,-11.219 9.056,-20.33 20.275,-20.351z"/>
  <path class="fil0" d="M38.908 8.841c16.637,-0.031 30.149,13.43 30.18,30.067 0.031,16.637 -13.43,30.149 -30.067,30.18 -16.636,0.031 -30.149,-13.431 -30.18,-30.067 -0.031,-16.637 13.431,-30.149 30.067,-30.18z"/>
  <path class="fil0" d="M38.892 0c21.519,-0.04 38.997,17.372 39.037,38.892 0.04,21.519 -17.372,38.997 -38.892,39.037 -21.519,0.04 -38.997,-17.372 -39.037,-38.892 -0.04,-21.519 17.372,-38.997 38.892,-39.037z"/>
  <g id="_105553909788928">
   <path class="fil1" d="M44.116 27.732l-10.303 0c-3.354,0 -6.082,2.728 -6.082,6.081l0 10.304c0,3.353 2.728,6.081 6.082,6.081l10.303 0c3.353,0 6.081,-2.728 6.081,-6.081l0 -10.304c0,-3.353 -2.728,-6.081 -6.081,-6.081l0 0zm4.764 16.385c0,2.626 -2.137,4.764 -4.764,4.764l-10.303 0c-2.627,0 -4.765,-2.138 -4.765,-4.764l0 -10.304c0,-2.627 2.138,-4.764 4.765,-4.764l10.303 0c2.627,0 4.764,2.137 4.764,4.764l0 10.304zm0 0z"/>
   <path class="fil1" d="M38.964 32.822c-3.387,0 -6.142,2.756 -6.142,6.143 0,3.387 2.755,6.143 6.142,6.143 3.388,0 6.143,-2.756 6.143,-6.143 0,-3.387 -2.755,-6.143 -6.143,-6.143zm0 10.969c-2.66,0 -4.825,-2.165 -4.825,-4.826 0,-2.661 2.165,-4.826 4.825,-4.826 2.661,0 4.826,2.165 4.826,4.826 0,2.661 -2.165,4.826 -4.826,4.826zm0 0z"/>
   <path class="fil1" d="M45.254 30.64c-1.001,0 -1.815,0.815 -1.815,1.816 0,1.001 0.814,1.815 1.815,1.815 1.001,0 1.816,-0.814 1.816,-1.815 0,-1.001 -0.815,-1.816 -1.816,-1.816zm0 2.314c-0.274,0 -0.498,-0.224 -0.498,-0.498 0,-0.275 0.224,-0.499 0.498,-0.499 0.275,0 0.498,0.224 0.498,0.499 0,0.274 -0.223,0.498 -0.498,0.498zm0 0z"/>
  </g>
 </g>
</svg>
